<svg xmlns="http://www.w3.org/2000/svg" width="20" height="13" viewBox="0 0 20 13">
  <g id="Arrow_-_Right" data-name="Arrow - Right" transform="translate(5 -13)">
    <path id="Arrow_-_Right-2" data-name="Arrow - Right" d="M11.176,0h0a2.279,2.279,0,0,0-1.011.238,2.056,2.056,0,0,0-.9.979,10.6,10.6,0,0,0-.29,1.153A23.3,23.3,0,0,0,8.708,6.11l0,.383a29.2,29.2,0,0,0,.24,4l.126.589a3.97,3.97,0,0,0,.259.849A2.016,2.016,0,0,0,11.112,13h.064a5.557,5.557,0,0,0,1.492-.441,25.023,25.023,0,0,0,6.215-4.105l.421-.43a3.9,3.9,0,0,0,.311-.362A1.892,1.892,0,0,0,20,6.508a1.975,1.975,0,0,0-.417-1.232l-.432-.455-.1-.1A24.552,24.552,0,0,0,12.508.364l-.271-.1A4.851,4.851,0,0,0,11.176,0Zm-9.5,4.857h0a1.645,1.645,0,1,0,0,3.289l4.11-.355a1.29,1.29,0,1,0,0-2.58Z" transform="translate(15 26) rotate(180)" fill="#585858"/>
  </g>
</svg>
