<svg xmlns="http://www.w3.org/2000/svg" width="14.603" height="14.59" viewBox="0 0 14.603 14.59">
  <g id="chefs-hat" transform="translate(0 -0.228)">
    <path id="Path_40174" data-name="Path 40174" d="M8.9,14.818H5.7a2.855,2.855,0,0,1-2.852-2.852V9.115A3.48,3.48,0,0,1,3.864,2.233a3.949,3.949,0,0,1,6.875,0,3.48,3.48,0,0,1,1.011,6.881v2.851A2.855,2.855,0,0,1,8.9,14.818ZM3.48,3.353A2.339,2.339,0,0,0,3.434,8.03a.57.57,0,0,1,.559.57v3.366A1.713,1.713,0,0,0,5.7,13.678H8.9a1.713,1.713,0,0,0,1.711-1.711V8.6a.57.57,0,0,1,.559-.57,2.339,2.339,0,1,0-.617-4.607.57.57,0,0,1-.666-.336,2.8,2.8,0,0,0-5.17,0,.57.57,0,0,1-.666.336,2.35,2.35,0,0,0-.571-.07Z" transform="translate(0 0)" fill="#c02328"/>
    <path id="Path_40175" data-name="Path 40175" d="M183.9,372.939h-3.194a.57.57,0,0,1,0-1.141H183.9A.57.57,0,0,1,183.9,372.939Z" transform="translate(-175.003 -360.973)" fill="#c02328"/>
  </g>
</svg>
