<svg id="vuesax_linear_messages" data-name="vuesax/linear/messages" xmlns="http://www.w3.org/2000/svg" width="14.589" height="14.625" viewBox="0 0 14.589 14.625">
  <g id="messages" transform="translate(0 0)">
    <g id="Group" transform="translate(0 2.717)">
      <g id="Vector" transform="translate(0 0)">
        <path id="Vector-border" d="M4.876,11.342h0l-.8-1.073a.184.184,0,0,0-.026-.016.12.12,0,0,0-.026-.011H3.763V9.224h.272v0a1.069,1.069,0,0,1,.47.12,1.094,1.094,0,0,1,.369.3l0,0,.815,1.087-.5.374.5-.372-.408.3.408-.306h0a.319.319,0,0,0,.244.157.32.32,0,0,0,.244-.157h0l.407.306-.408-.3.5.372-.5-.374L7,9.644a1.056,1.056,0,0,1,.842-.421v1.018a.036.036,0,0,0-.015,0,.045.045,0,0,0-.012.009L7,11.342H7a1.276,1.276,0,0,1-2.121,0ZM4.065,10.26l0,0,0,0ZM8.109,9.224a2.965,2.965,0,0,0,1.971-.564,2.392,2.392,0,0,0,.748-1.715l0-.02.506.063-.506-.063a3.57,3.57,0,0,0,.023-.446V3.763h1.019V6.48a4.644,4.644,0,0,1-.031.569,3.386,3.386,0,0,1-1.1,2.388,3.957,3.957,0,0,1-2.63.805Zm-.271,1.018V9.224h.271v1.018ZM.988,9.509A3.8,3.8,0,0,1,0,6.48H1.018c0,1.314.268,1.937.64,2.262a3.17,3.17,0,0,0,2.1.482v1.018A4.1,4.1,0,0,1,.988,9.509ZM0,6.48V3.763H1.018V6.48ZM10.854,3.763a2.817,2.817,0,0,0-.665-2.079,2.818,2.818,0,0,0-2.079-.665H3.763a3.684,3.684,0,0,0-.446.023l-.02,0a2.392,2.392,0,0,0-1.712.748,2.958,2.958,0,0,0-.566,1.971H0a3.95,3.95,0,0,1,.808-2.63,3.4,3.4,0,0,1,2.4-1.1h0A4.586,4.586,0,0,1,3.763,0H8.109a3.812,3.812,0,0,1,2.8.963,3.813,3.813,0,0,1,.963,2.8ZM3.3,1.044,3.253.537h0Z" fill="#c02328"/>
      </g>
    </g>
    <g id="Vector-2" data-name="Vector" transform="translate(2.744 0)">
      <path id="Vector-border-2" data-name="Vector-border" d="M8.225,10.059a.508.508,0,0,1-.139-.416A3.564,3.564,0,0,0,8.11,9.2h0V6.48H9.129V9.106a2.08,2.08,0,0,0,1.133-.653,2.957,2.957,0,0,0,.565-1.973V3.763h1.018V6.48a3.954,3.954,0,0,1-.808,2.633,3.4,3.4,0,0,1-2.4,1.1l-.043,0A.51.51,0,0,1,8.225,10.059ZM8.11,6.48A2.816,2.816,0,0,0,7.445,4.4a2.815,2.815,0,0,0-2.079-.665V2.717a3.814,3.814,0,0,1,2.8.963,3.812,3.812,0,0,1,.963,2.8ZM.156,3.621A.51.51,0,0,1,0,3.21l.507.043.063.506a.51.51,0,0,1-.416-.138Zm10.671.142a2.819,2.819,0,0,0-.665-2.079,2.819,2.819,0,0,0-2.079-.665H3.736a2.957,2.957,0,0,0-1.971.566A2.083,2.083,0,0,0,1.11,2.717H5.365V3.736H1.019v0a3.57,3.57,0,0,0-.446.023L.509,3.253,0,3.21A3.4,3.4,0,0,1,1.1.808,3.952,3.952,0,0,1,3.736,0H8.083a3.81,3.81,0,0,1,2.8.963,3.81,3.81,0,0,1,.963,2.8Z" transform="translate(0 0)" fill="#c02328"/>
    </g>
    <g id="Vector-3" data-name="Vector" transform="translate(7.808 7.641)">
      <path id="Vector-border-3" data-name="Vector-border" d="M.516,0a.51.51,0,0,1,0,1.019ZM.51,1.019A.51.51,0,1,1,.51,0H.516V1.019Z" transform="translate(0 0)" fill="#c02328"/>
    </g>
    <g id="Vector-4" data-name="Vector" transform="translate(5.43 7.641)">
      <path id="Vector-border-4" data-name="Vector-border" d="M.516,0a.51.51,0,0,1,0,1.019ZM.51,1.019A.51.51,0,1,1,.51,0H.516V1.019Z" transform="translate(0 0)" fill="#c02328"/>
    </g>
    <g id="Vector-5" data-name="Vector" transform="translate(3.053 7.641)">
      <path id="Vector-border-5" data-name="Vector-border" d="M.516,0a.51.51,0,0,1,0,1.019ZM.51,1.019A.51.51,0,1,1,.51,0H.516V1.019Z" transform="translate(0 0)" fill="#c02328"/>
    </g>
  </g>
</svg>
