<svg xmlns="http://www.w3.org/2000/svg" width="14.59" height="13.653" viewBox="0 0 14.59 13.653">
  <g id="Layer_2" data-name="Layer 2" transform="translate(-0.648 -1.377)">
    <path id="Path_39775" data-name="Path 39775" d="M5.63,15.031a1.693,1.693,0,0,1-1.468-.844l-.375-.649A1.743,1.743,0,0,1,3.881,11.7a1.123,1.123,0,0,0,.028-1.17,1.137,1.137,0,0,0-1.028-.562,1.745,1.745,0,0,1-1.634-.835l-.372-.65a1.691,1.691,0,0,1,.619-2.308L9.418,1.6a1.693,1.693,0,0,1,2.309.618l.373.649A1.743,1.743,0,0,1,12.005,4.7a1.123,1.123,0,0,0-.028,1.17,1.136,1.136,0,0,0,1.028.562,1.747,1.747,0,0,1,1.634.835l.372.65a1.691,1.691,0,0,1-.619,2.308L6.471,14.8a1.675,1.675,0,0,1-.841.226Zm-2.7-6.023A2.089,2.089,0,0,1,4.693,12.22a.8.8,0,0,0-.071.832L5,13.7a.728.728,0,0,0,.992.266l7.925-4.576A.727.727,0,0,0,14.18,8.4L13.8,7.754a.816.816,0,0,0-.756-.354,2.089,2.089,0,0,1-1.855-3.214.8.8,0,0,0,.071-.835L10.89,2.7A.728.728,0,0,0,9.9,2.436L1.973,7.013a.727.727,0,0,0-.263.992l.372.648a.811.811,0,0,0,.756.354h.1Z" transform="translate(0 0)" fill="#aba5a2"/>
    <path id="Path_39776" data-name="Path 39776" d="M9,10.767a.482.482,0,0,1-.242-.9l2.226-1.285a.482.482,0,0,1,.482.835L9.241,10.7A.476.476,0,0,1,9,10.767Z" transform="translate(-2.812 -2.552)" fill="#aba5a2"/>
    <path id="Path_39777" data-name="Path 39777" d="M11,14.231a.482.482,0,0,1-.242-.9l2.226-1.285a.482.482,0,0,1,.482.835l-2.226,1.285A.476.476,0,0,1,11,14.231Z" transform="translate(-3.527 -3.79)" fill="#aba5a2"/>
  </g>
</svg>
