<svg id="_3_User" data-name="3 User" xmlns="http://www.w3.org/2000/svg" width="14.59" height="11.238" viewBox="0 0 14.59 11.238">
  <g id="Stroke_1" data-name="Stroke 1" transform="translate(10.541 0.623)">
    <path id="Stroke_1-border" data-name="Stroke 1-border" d="M0,4.344a.5.5,0,0,1,.5-.5A1.427,1.427,0,0,0,1.924,2.421h.995A2.421,2.421,0,0,1,.5,4.841.5.5,0,0,1,0,4.344ZM1.924,2.421A1.427,1.427,0,0,0,.5.994.5.5,0,0,1,.5,0,2.421,2.421,0,0,1,2.918,2.421Z" transform="translate(0)" fill="#aba5a2"/>
  </g>
  <g id="Stroke_3" data-name="Stroke 3" transform="translate(11.429 6.556)">
    <path id="Stroke_3-border" data-name="Stroke 3-border" d="M.953,2.82a.5.5,0,0,1,.387-.588l.2.974A.5.5,0,0,1,.953,2.82Zm.387-.588a2.238,2.238,0,0,0,.538-.171.519.519,0,0,0,.248-.206h0a.417.417,0,0,0,0-.358h0a.515.515,0,0,0-.248-.207,2.152,2.152,0,0,0-.533-.168l-.014,0L1.44.634l-.109.485A5.8,5.8,0,0,0,.463.993.5.5,0,1,1,.531,0,6.718,6.718,0,0,1,1.539.146,3.118,3.118,0,0,1,2.322.4a1.48,1.48,0,0,1,.7.668l-.535.255.535-.255-.449.214.449-.214h0a1.413,1.413,0,0,1,0,1.212l-.363-.172.363.172h0a1.484,1.484,0,0,1-.7.669,3.2,3.2,0,0,1-.782.257Z" transform="translate(0 0)" fill="#aba5a2"/>
  </g>
  <g id="Stroke_5" data-name="Stroke 5" transform="translate(1.127 0.623)">
    <path id="Stroke_5-border" data-name="Stroke 5-border" d="M2.421,3.847a.5.5,0,0,1,0,.995ZM0,2.421H.994A1.427,1.427,0,0,0,2.421,3.847v.995A2.421,2.421,0,0,1,0,2.421Zm0,0A2.421,2.421,0,0,1,2.421,0V.994A1.427,1.427,0,0,0,.994,2.421ZM2.421,0a.5.5,0,0,1,0,.994Z" fill="#aba5a2"/>
  </g>
  <g id="Stroke_7" data-name="Stroke 7" transform="translate(0 6.556)">
    <path id="Stroke_7-border" data-name="Stroke 7-border" d="M1.621,3.206l.2-.974a.5.5,0,1,1-.2.974ZM.838,2.95a1.482,1.482,0,0,1-.7-.669h0a1.407,1.407,0,0,1,0-1.212h0A1.482,1.482,0,0,1,.838.4,3.13,3.13,0,0,1,1.625.146h0A6.7,6.7,0,0,1,2.63,0,.5.5,0,1,1,2.7.993a5.806,5.806,0,0,0-.869.126l-.013,0a2.149,2.149,0,0,0-.534.168.506.506,0,0,0-.247.206L.586,1.282l.449.214h0a.415.415,0,0,0,0,.357l-.562.268.114-.054.449-.214h0a.515.515,0,0,0,.248.206,2.238,2.238,0,0,0,.538.171l-.2.974A3.209,3.209,0,0,1,.838,2.95Zm.978-1.828L1.723.644l0-.01Z" transform="translate(0 0)" fill="#aba5a2"/>
  </g>
  <g id="Stroke_9" data-name="Stroke 9" transform="translate(2.804 6.974)">
    <path id="Stroke_9-border" data-name="Stroke 9-border" d="M4.488,3.27a8.82,8.82,0,0,0,2.647-.3A1.642,1.642,0,0,0,7.8,2.589a.628.628,0,0,0,.182-.462.622.622,0,0,0-.182-.46,1.649,1.649,0,0,0-.668-.372,8.924,8.924,0,0,0-2.644-.3V0A9.819,9.819,0,0,1,7.449.351,2.616,2.616,0,0,1,8.516.977a1.614,1.614,0,0,1,.461,1.15A1.621,1.621,0,0,1,8.52,3.276a2.606,2.606,0,0,1-1.064.63,9.707,9.707,0,0,1-2.967.359Zm-2.961.643A2.618,2.618,0,0,1,.46,3.287,1.612,1.612,0,0,1,0,2.138H.994a.62.62,0,0,0,.182.459,1.635,1.635,0,0,0,.668.372,8.906,8.906,0,0,0,2.645.3v.995A9.84,9.84,0,0,1,1.527,3.913ZM0,2.138A1.623,1.623,0,0,1,.456.988,2.61,2.61,0,0,1,1.521.358,9.712,9.712,0,0,1,4.488,0V.994A8.793,8.793,0,0,0,1.841,1.3a1.638,1.638,0,0,0-.665.375.628.628,0,0,0-.182.463Z" transform="translate(0 0)" fill="#aba5a2"/>
  </g>
  <g id="Stroke_11" data-name="Stroke 11" transform="translate(4.236 0)">
    <path id="Stroke_11-border" data-name="Stroke 11-border" d="M0,3.055H.994A2.061,2.061,0,1,0,3.055.994,2.052,2.052,0,0,0,.994,3.055H0A3.055,3.055,0,1,1,3.055,6.11,3.045,3.045,0,0,1,0,3.055Z" fill="#aba5a2"/>
  </g>
</svg>
