<svg id="Folder" xmlns="http://www.w3.org/2000/svg" width="14.59" height="14.571" viewBox="0 0 14.59 14.571">
  <g id="Path_33957" transform="translate(0 0)">
    <path id="Path_33957-border" d="M10.033,13.513a3.512,3.512,0,0,0,2.577-.9,3.512,3.512,0,0,0,.9-2.577v0l.02-3.5a3.867,3.867,0,0,0-.656-2.55A2.8,2.8,0,0,0,10.6,3.2h-2a2.144,2.144,0,0,1-1.709-.855L6.252,1.49h0l.423-.317.115-.087-.538.4a1.081,1.081,0,0,0-.864-.432H3.978a2.67,2.67,0,0,0-2.257.859,4.177,4.177,0,0,0-.664,2.622H0a5.19,5.19,0,0,1,.893-3.28A3.709,3.709,0,0,1,3.978,0H5.387A2.137,2.137,0,0,1,7.1.854h0l.643.856a1.087,1.087,0,0,0,.865.433H10.6a3.82,3.82,0,0,1,3.081,1.151,4.873,4.873,0,0,1,.909,3.239h0v0l-.019,3.5h0a4.555,4.555,0,0,1-1.214,3.321,4.556,4.556,0,0,1-3.324,1.214ZM4.544,14.571V13.513h5.489v1.058Zm-3.33-1.213A4.556,4.556,0,0,1,0,10.033H1.057a3.51,3.51,0,0,0,.9,2.577,3.523,3.523,0,0,0,2.582.9v1.058A4.569,4.569,0,0,1,1.214,13.358ZM0,10.033v-5.5H1.057v5.5Z" fill="#aba5a2"/>
  </g>
  <g id="Line_194" transform="translate(3.37 8.605)">
    <path id="Line_194-border" d="M7.291,0a.529.529,0,1,1,0,1.057ZM.529,1.057A.529.529,0,1,1,.529,0H7.291V1.057Z" transform="translate(0 0)" fill="#aba5a2"/>
  </g>
</svg>
