<svg xmlns="http://www.w3.org/2000/svg" xmlns:xlink="http://www.w3.org/1999/xlink" width="150" height="33.359" viewBox="0 0 150 33.359">
  <defs>
    <linearGradient id="linear-gradient" x1="0.399" y1="-0.121" x2="0.744" y2="1.354" gradientUnits="objectBoundingBox">
      <stop offset="0.012" stop-color="#e03550"/>
      <stop offset="0.568" stop-color="#662278"/>
    </linearGradient>
    <linearGradient id="linear-gradient-2" x1="-7.111" y1="21.389" x2="-7.105" y2="21.371" gradientUnits="objectBoundingBox">
      <stop offset="0.106" stop-color="#9e1732"/>
      <stop offset="0.797" stop-color="#770827"/>
    </linearGradient>
    <linearGradient id="linear-gradient-3" x1="-0.258" y1="0.985" x2="1.582" y2="-0.059" gradientUnits="objectBoundingBox">
      <stop offset="0.1" stop-color="#ffbd31"/>
      <stop offset="0.806" stop-color="#e1402a"/>
    </linearGradient>
    <linearGradient id="linear-gradient-4" x1="0.263" y1="0.265" x2="0.792" y2="1.032" gradientUnits="objectBoundingBox">
      <stop offset="0.101" stop-color="#73a33b"/>
      <stop offset="0.733" stop-color="#c2c53e"/>
    </linearGradient>
    <linearGradient id="linear-gradient-5" x1="-0.258" y1="1.212" x2="1.041" y2="0.089" gradientUnits="objectBoundingBox">
      <stop offset="0.079" stop-color="#fda52f"/>
      <stop offset="1" stop-color="#e14528"/>
    </linearGradient>
    <linearGradient id="linear-gradient-6" x1="0.227" y1="-0.103" x2="1.159" y2="1.056" gradientUnits="objectBoundingBox">
      <stop offset="0.155" stop-color="#e14373"/>
      <stop offset="0.551" stop-color="#a32b7a"/>
      <stop offset="0.902" stop-color="#7d1460"/>
    </linearGradient>
    <linearGradient id="linear-gradient-7" x1="-5.761" y1="4.528" x2="-5.766" y2="4.521" gradientUnits="objectBoundingBox">
      <stop offset="0.283" stop-color="#5c2071"/>
      <stop offset="1" stop-color="#461e66"/>
    </linearGradient>
    <linearGradient id="linear-gradient-8" x1="-0.002" y1="0.83" x2="1.506" y2="0.066" gradientUnits="objectBoundingBox">
      <stop offset="0.051" stop-color="#73af4f"/>
      <stop offset="0.806" stop-color="#c6c33a"/>
    </linearGradient>
  </defs>
  <g id="Group_5" data-name="Group 5" transform="translate(-2111.169 1782.098)">
    <g id="Group_2" data-name="Group 2" transform="translate(2111.169 -1782.098)">
      <path id="Path_1" data-name="Path 1" d="M509.226,126.105s1.494-1.974,4.572-.881,1.505,5.608,1.505,5.608l-.714,2.648,2.576-.017-.223,1.1-2.709.011-2.029,7.693s-.334,1.628,1.026,2.063a2.734,2.734,0,0,0,2.631-.959,17.579,17.579,0,0,0,2.475-3.59c.368-.786,4.449-7.794,3.914-13.045-.577-5.659-6.155-6.824-6.155-6.824a10.125,10.125,0,0,0-9.834,3.78,12.348,12.348,0,0,0-2.375,4.282C503.837,128.184,509.226,126.105,509.226,126.105Z" transform="translate(-497.658 -119.747)" fill="url(#linear-gradient)"/>
      <path id="Path_3" data-name="Path 3" d="M504.984,199.112c-.086.131-.434.83-.5.972a6.585,6.585,0,0,0-.412,1.194,14.827,14.827,0,0,1,2.488-1.171,17.707,17.707,0,0,1,2.872-.728.175.175,0,0,0-.057-.027A13.2,13.2,0,0,0,504.984,199.112Z" transform="translate(-497.831 -193.064)" fill="url(#linear-gradient-2)"/>
      <path id="Path_2" data-name="Path 2" d="M433,211.15l1.427-5.575s.6-1.739-1.84-1.84-5.385,1.985-5.385,1.985a16.087,16.087,0,0,0-5.051,7.816c-1.739,5.419-.7,8.329-.7,8.329-.071-.169,1.1,4.318,5.352,5.352a4.365,4.365,0,0,0,2.45.151,5.46,5.46,0,0,1-.92-2.609c-.2-3,.378-4.049,1.07-6.1a50.932,50.932,0,0,1,3.245-6.46l-1.526,0,.238-1.083Z" transform="translate(-421.147 -197.41)" fill="url(#linear-gradient-3)"/>
      <path id="Path_3-2" data-name="Path 3" d="M519.366,316.167l-1.915,7.112s-1.218,4.991,4.22,5.3c4.092.234,6.35-3.914,6.35-3.914a9,9,0,0,1-.251,6.311c-1.461,3.8-5.837,3.875-6.724,3.724a7.712,7.712,0,0,1-5.076-3.362,6.477,6.477,0,0,1-.856-5.224,23.183,23.183,0,0,1,2.364-6.467C518.163,318.3,519.366,316.167,519.366,316.167Z" transform="translate(-507.862 -301.384)" fill="url(#linear-gradient-4)"/>
      <path id="Path_4" data-name="Path 4" d="M447.159,262.334l.833-3.252c-6.4.143-11.548,6.337-11.548,13.956a16.641,16.641,0,0,0,.133,2.106,7.225,7.225,0,0,0,4.382,3.257,4.365,4.365,0,0,0,2.45.151,5.46,5.46,0,0,1-.92-2.609c-.2-3,.378-4.049,1.07-6.1a50.934,50.934,0,0,1,3.245-6.46l-1.526,0,.238-1.083Z" transform="translate(-435.293 -248.595)" fill="url(#linear-gradient-5)"/>
      <path id="Path_5" data-name="Path 5" d="M499.549,318.275c-3.543,3.624-5.969,8.221-5.969,12.188a12.987,12.987,0,0,0,.279,2.678,4.3,4.3,0,0,0,2.394.137,5.461,5.461,0,0,1-.92-2.609,12.03,12.03,0,0,1,1.07-6.1A52.437,52.437,0,0,1,499.549,318.275Z" transform="translate(-488.129 -303.333)" fill="#d55a29"/>
      <g id="Group_1" data-name="Group 1" transform="translate(0.008 6.388)">
        <path id="Path_6" data-name="Path 6" d="M421.553,218.55c.84-6.9,4.886-12.211,10.167-13.93a12.548,12.548,0,0,0-4.4,1.918,16.087,16.087,0,0,0-5.051,7.816c-1.367,4.258-1.019,6.966-.808,7.931A19.357,19.357,0,0,1,421.553,218.55Z" transform="translate(-421.257 -204.62)" fill="#ffb032"/>
      </g>
      <path id="Path_7" data-name="Path 7" d="M563.095,121.054c5.1.945,8.289,6.683,6.965,14.584,1.107-2.619,2.2-6.019,1.9-8.894-.577-5.659-6.155-6.824-6.155-6.824a10.026,10.026,0,0,0-8.172,2.106A8.206,8.206,0,0,1,563.095,121.054Z" transform="translate(-547.365 -119.75)" fill="url(#linear-gradient-6)"/>
      <g id="Group_5-2" data-name="Group 5" transform="translate(14.524 16.254)">
        <path id="Path_11" data-name="Path 11" d="M615.49,342.53a1.269,1.269,0,0,1-1.208-1.006,2.775,2.775,0,0,0-.152.845,1.569,1.569,0,0,0,.765,1.526,2.028,2.028,0,0,0,2.13-.165,10.168,10.168,0,0,0,2.681-3.142,46.53,46.53,0,0,0,2.435-4.871C617.169,343.03,616.151,342.53,615.49,342.53Z" transform="translate(-614.13 -335.716)" fill="url(#linear-gradient-7)"/>
      </g>
      <path id="Path_8" data-name="Path 8" d="M570.009,429.111s-2.258,4.148-6.35,3.914a4.868,4.868,0,0,1-3.193-1.167,4.839,4.839,0,0,0,.692,3.944c1.546,2.145,4.811,2.517,7.783,1.071a5.557,5.557,0,0,0,.817-1.451A9,9,0,0,0,570.009,429.111Z" transform="translate(-549.85 -405.827)" fill="url(#linear-gradient-8)"/>
      <path id="Path_9" data-name="Path 9" d="M515.116,325.508a38.3,38.3,0,0,1,3.706-9.116l.107-.225s-1.208,2.139-1.892,3.484a22.7,22.7,0,0,0-2.412,6.421,6.581,6.581,0,0,0,.9,5.269,8.454,8.454,0,0,0,3.2,2.779A7.423,7.423,0,0,1,515.116,325.508Z" transform="translate(-507.417 -301.384)" fill="#aec54f"/>
    </g>
    <path id="Path_11-2" data-name="Path 11" d="M-433.118-76.639h2.541V-86.684h3.516v-2.095h-9.565v2.095h3.508Zm9.6.143a3.245,3.245,0,0,0,1.1-.181,2.967,2.967,0,0,0,.9-.513,2.714,2.714,0,0,0,.652-.795h.05v1.346h2.456v-6.183a2.709,2.709,0,0,0-.475-1.59,3.08,3.08,0,0,0-1.333-1.056,5.041,5.041,0,0,0-2.027-.374,5.223,5.223,0,0,0-2.048.366,3.187,3.187,0,0,0-1.346,1.014,2.8,2.8,0,0,0-.551,1.481l-.008.1h2.246l.017-.076a1.166,1.166,0,0,1,.5-.723,1.86,1.86,0,0,1,1.094-.286,1.57,1.57,0,0,1,1.1.349,1.224,1.224,0,0,1,.379.946v2.734a1.5,1.5,0,0,1-.248.845,1.706,1.706,0,0,1-.681.589,2.179,2.179,0,0,1-.98.215,1.667,1.667,0,0,1-1.018-.282.916.916,0,0,1-.379-.778v-.017a.93.93,0,0,1,.37-.77,1.908,1.908,0,0,1,1.077-.332l3.146-.2V-82.2l-3.516.219a5.814,5.814,0,0,0-1.9.412,2.74,2.74,0,0,0-1.195.921,2.382,2.382,0,0,0-.412,1.409v.017a2.622,2.622,0,0,0,.383,1.409,2.634,2.634,0,0,0,1.064.967A3.422,3.422,0,0,0-423.521-76.5Zm8.528-.143h2.456V-88.778h-2.456Zm8.52.143a3.245,3.245,0,0,0,1.1-.181,2.967,2.967,0,0,0,.9-.513,2.714,2.714,0,0,0,.652-.795h.05v1.346h2.456v-6.183a2.709,2.709,0,0,0-.475-1.59,3.08,3.08,0,0,0-1.333-1.056,5.041,5.041,0,0,0-2.027-.374,5.223,5.223,0,0,0-2.048.366,3.187,3.187,0,0,0-1.346,1.014,2.8,2.8,0,0,0-.551,1.481l-.008.1h2.246l.017-.076a1.166,1.166,0,0,1,.5-.723,1.86,1.86,0,0,1,1.094-.286,1.57,1.57,0,0,1,1.1.349,1.224,1.224,0,0,1,.379.946v2.734a1.5,1.5,0,0,1-.248.845,1.706,1.706,0,0,1-.681.589,2.179,2.179,0,0,1-.98.215,1.667,1.667,0,0,1-1.018-.282.916.916,0,0,1-.379-.778v-.017a.93.93,0,0,1,.37-.77,1.908,1.908,0,0,1,1.077-.332l3.146-.2V-82.2l-3.516.219a5.814,5.814,0,0,0-1.9.412,2.74,2.74,0,0,0-1.195.921,2.382,2.382,0,0,0-.412,1.409v.017a2.622,2.622,0,0,0,.383,1.409,2.634,2.634,0,0,0,1.064.967A3.422,3.422,0,0,0-406.472-76.5Zm13.811.042a3.388,3.388,0,0,0,1.96-.564,3.594,3.594,0,0,0,1.27-1.615,6.424,6.424,0,0,0,.446-2.515v-.008a6.416,6.416,0,0,0-.446-2.519,3.58,3.58,0,0,0-1.266-1.607,3.387,3.387,0,0,0-1.956-.559,3.243,3.243,0,0,0-1.182.21,2.8,2.8,0,0,0-.946.6,3.1,3.1,0,0,0-.656.938h-.05v-4.686h-2.456v12.139h2.456v-1.539h.05a2.906,2.906,0,0,0,.648.921,2.874,2.874,0,0,0,.942.593A3.234,3.234,0,0,0-392.661-76.454Zm-.816-2.036a1.765,1.765,0,0,1-1.052-.324,2.1,2.1,0,0,1-.707-.921,3.615,3.615,0,0,1-.252-1.413v-.008a3.532,3.532,0,0,1,.257-1.409,2.146,2.146,0,0,1,.707-.917,1.746,1.746,0,0,1,1.047-.324,1.776,1.776,0,0,1,1.056.32,2.033,2.033,0,0,1,.694.913,3.719,3.719,0,0,1,.244,1.417v.008a3.726,3.726,0,0,1-.244,1.413,2.071,2.071,0,0,1-.69.921A1.755,1.755,0,0,1-393.477-78.49Zm10.16,1.994a3.245,3.245,0,0,0,1.1-.181,2.967,2.967,0,0,0,.9-.513,2.714,2.714,0,0,0,.652-.795h.05v1.346h2.456v-6.183a2.709,2.709,0,0,0-.475-1.59,3.08,3.08,0,0,0-1.333-1.056,5.041,5.041,0,0,0-2.027-.374,5.223,5.223,0,0,0-2.048.366,3.187,3.187,0,0,0-1.346,1.014,2.8,2.8,0,0,0-.551,1.481l-.008.1h2.246l.017-.076a1.166,1.166,0,0,1,.5-.723,1.86,1.86,0,0,1,1.094-.286,1.57,1.57,0,0,1,1.1.349,1.224,1.224,0,0,1,.379.946v2.734a1.5,1.5,0,0,1-.248.845,1.706,1.706,0,0,1-.681.589,2.179,2.179,0,0,1-.98.215,1.667,1.667,0,0,1-1.018-.282.916.916,0,0,1-.379-.778v-.017a.93.93,0,0,1,.37-.77,1.908,1.908,0,0,1,1.077-.332l3.146-.2V-82.2l-3.516.219a5.814,5.814,0,0,0-1.9.412,2.74,2.74,0,0,0-1.195.921,2.382,2.382,0,0,0-.412,1.409v.017a2.622,2.622,0,0,0,.383,1.409,2.634,2.634,0,0,0,1.064.967A3.422,3.422,0,0,0-383.317-76.5Zm12.053.042q.387,0,.686-.029t.5-.063v-1.8q-.109.017-.236.029t-.294.013a1.233,1.233,0,0,1-.837-.248,1.131,1.131,0,0,1-.282-.879v-4.374h1.649v-1.851h-1.649v-2.2h-2.482v2.2h-1.253v1.851h1.253v4.644a2.629,2.629,0,0,0,.723,2.078A3.312,3.312,0,0,0-371.263-76.454Zm9.856-.185h1.068v-9.985h.547l-1.287-1.893,5.014,11.878h1l5.014-11.878-1.287,1.893h.547v9.985h1.077V-88.778h-1.321l-4.509,10.7h-.042l-4.509-10.7h-1.312Zm19.044.16a4.379,4.379,0,0,0,1.312-.189,3.591,3.591,0,0,0,1.077-.538,3.146,3.146,0,0,0,.778-.824,3.049,3.049,0,0,0,.425-1.031l.017-.084h-1.094l-.025.076a2.1,2.1,0,0,1-.48.841,2.249,2.249,0,0,1-.841.559,3.117,3.117,0,0,1-1.144.2,2.865,2.865,0,0,1-1.523-.4,2.625,2.625,0,0,1-1.005-1.144,4.191,4.191,0,0,1-.358-1.817v-.421a4.1,4.1,0,0,1,.358-1.788,2.631,2.631,0,0,1,.98-1.131,2.637,2.637,0,0,1,1.422-.387,2.616,2.616,0,0,1,1.409.379,2.56,2.56,0,0,1,.959,1.115,4.214,4.214,0,0,1,.349,1.813v.421l.564-.8h-6.6v.883h7.142v-.437a5.3,5.3,0,0,0-.467-2.3,3.575,3.575,0,0,0-1.321-1.527,3.692,3.692,0,0,0-2.023-.543,3.691,3.691,0,0,0-2.044.564,3.73,3.73,0,0,0-1.359,1.59,5.569,5.569,0,0,0-.484,2.4v.008a5.506,5.506,0,0,0,.484,2.393,3.622,3.622,0,0,0,1.375,1.565A3.952,3.952,0,0,0-342.364-76.479Zm6.93-.16h1.11v-5.182a3.082,3.082,0,0,1,.315-1.434,2.352,2.352,0,0,1,.888-.955,2.54,2.54,0,0,1,1.338-.345,2.206,2.206,0,0,1,1.708.639,2.651,2.651,0,0,1,.589,1.859v5.418h1.11v-5.6a3.414,3.414,0,0,0-.816-2.423,2.953,2.953,0,0,0-2.271-.875,3.206,3.206,0,0,0-1.775.467,2.833,2.833,0,0,0-1.06,1.182h-.025v-1.5h-1.11Zm13.685.151a3.515,3.515,0,0,0,1.266-.215,2.858,2.858,0,0,0,.955-.589,2.757,2.757,0,0,0,.614-.845h.034v1.5h1.1v-8.749h-1.1v5.182a3.261,3.261,0,0,1-.181,1.115,2.46,2.46,0,0,1-.522.862,2.371,2.371,0,0,1-.8.559,2.631,2.631,0,0,1-1.043.2,2.209,2.209,0,0,1-1.7-.639,2.639,2.639,0,0,1-.593-1.859v-5.418h-1.11v5.6a3.91,3.91,0,0,0,.37,1.767,2.631,2.631,0,0,0,1.06,1.136A3.28,3.28,0,0,0-321.749-76.488Z" transform="translate(2578.947 -1687.64)" fill="#1f303f"/>
    <path id="Path_10" data-name="Path 10" d="M-288.654-24.735h.6v-1.477h.823l.785,1.477h.692l-.863-1.57a1.045,1.045,0,0,0,.546-.411,1.2,1.2,0,0,0,.2-.686v-.005a1.211,1.211,0,0,0-.156-.628,1.047,1.047,0,0,0-.445-.409,1.506,1.506,0,0,0-.681-.144h-1.5Zm.6-1.971v-1.381h.823a.772.772,0,0,1,.543.183.646.646,0,0,1,.2.5v.005a.672.672,0,0,1-.19.511.744.744,0,0,1-.534.18Zm6.068,2.027a1.464,1.464,0,0,0,.465-.069,1.177,1.177,0,0,0,.362-.191,1.1,1.1,0,0,0,.25-.274.962.962,0,0,0,.131-.318l.005-.029h-.55l-.008.021a.484.484,0,0,1-.121.194.635.635,0,0,1-.218.139.812.812,0,0,1-.3.052.767.767,0,0,1-.4-.1.673.673,0,0,1-.263-.3,1.077,1.077,0,0,1-.092-.466v-.224a1.116,1.116,0,0,1,.093-.482.688.688,0,0,1,.256-.3.683.683,0,0,1,.369-.1.7.7,0,0,1,.367.1.639.639,0,0,1,.248.292,1.189,1.189,0,0,1,.089.493v.224l.286-.382h-2v.409h2.283v-.195a1.678,1.678,0,0,0-.155-.741,1.159,1.159,0,0,0-.439-.494,1.272,1.272,0,0,0-.68-.175,1.258,1.258,0,0,0-.684.183,1.219,1.219,0,0,0-.451.513,1.738,1.738,0,0,0-.16.768v0a1.745,1.745,0,0,0,.159.77,1.165,1.165,0,0,0,.457.5A1.359,1.359,0,0,0-281.988-24.679Zm4.93,0a1.494,1.494,0,0,0,.589-.109.965.965,0,0,0,.4-.3.729.729,0,0,0,.147-.451v0a.655.655,0,0,0-.18-.485,1.262,1.262,0,0,0-.61-.279l-.459-.107a.983.983,0,0,1-.24-.085.34.34,0,0,1-.135-.12.3.3,0,0,1-.041-.155v0a.324.324,0,0,1,.061-.2.388.388,0,0,1,.176-.13.731.731,0,0,1,.27-.045.588.588,0,0,1,.385.116.45.45,0,0,1,.166.3l0,.019h.542v-.032a.821.821,0,0,0-.148-.431.918.918,0,0,0-.375-.306,1.341,1.341,0,0,0-.572-.112,1.431,1.431,0,0,0-.569.105.884.884,0,0,0-.382.3.746.746,0,0,0-.136.445v0a.711.711,0,0,0,.088.358.728.728,0,0,0,.266.262,1.526,1.526,0,0,0,.445.168l.459.1a.727.727,0,0,1,.315.139.286.286,0,0,1,.088.219v0a.3.3,0,0,1-.067.2.417.417,0,0,1-.19.127.891.891,0,0,1-.3.044.683.683,0,0,1-.411-.108.491.491,0,0,1-.19-.3l-.005-.027h-.572l0,.024a.912.912,0,0,0,.174.45.946.946,0,0,0,.4.3A1.531,1.531,0,0,0-277.058-24.679Zm4.765,0a1.613,1.613,0,0,0,.166-.008q.077-.008.128-.016v-.446l-.071.007a.821.821,0,0,1-.084,0,.422.422,0,0,1-.278-.079.37.37,0,0,1-.093-.292v-1.576H-272v-.459h-.526v-.732h-.593v.732h-.4v.459h.4v1.608a.8.8,0,0,0,.2.61A.89.89,0,0,0-272.293-24.679Zm3.739-.005a1.014,1.014,0,0,0,.351-.06.967.967,0,0,0,.3-.171.914.914,0,0,0,.214-.263h.011v.443h.582v-1.936a.86.86,0,0,0-.139-.489.91.91,0,0,0-.39-.323,1.422,1.422,0,0,0-.6-.115,1.451,1.451,0,0,0-.6.112.957.957,0,0,0-.393.306.853.853,0,0,0-.163.437l0,.029h.545l.005-.024a.449.449,0,0,1,.188-.275.677.677,0,0,1,.4-.107.591.591,0,0,1,.414.132.47.47,0,0,1,.144.365v.836a.592.592,0,0,1-.093.327.647.647,0,0,1-.255.228.788.788,0,0,1-.365.083.6.6,0,0,1-.373-.107.346.346,0,0,1-.14-.291v-.005a.345.345,0,0,1,.14-.287.717.717,0,0,1,.4-.124l.985-.061v-.406l-1.063.064a1.609,1.609,0,0,0-.565.123.831.831,0,0,0-.357.282.725.725,0,0,0-.123.423v.005a.833.833,0,0,0,.117.443.8.8,0,0,0,.328.3A1.074,1.074,0,0,0-268.553-24.684Zm5.155.005a1.1,1.1,0,0,0,.381-.061.876.876,0,0,0,.287-.17.87.87,0,0,0,.192-.247h.013v.422h.58v-2.809h-.58v1.64a.9.9,0,0,1-.047.3.64.64,0,0,1-.135.23.612.612,0,0,1-.21.147.7.7,0,0,1-.276.052.563.563,0,0,1-.447-.17.719.719,0,0,1-.148-.487v-1.709h-.582v1.819a1.259,1.259,0,0,0,.115.558.83.83,0,0,0,.332.362A1.025,1.025,0,0,0-263.4-24.679Zm4.209-.056h.582v-1.674a.808.808,0,0,1,.072-.357.516.516,0,0,1,.208-.227.629.629,0,0,1,.32-.079,1.168,1.168,0,0,1,.155.009.492.492,0,0,1,.1.023v-.537a.757.757,0,0,0-.084-.015.92.92,0,0,0-.116-.007.62.62,0,0,0-.411.143.746.746,0,0,0-.238.391h-.011v-.481h-.582Zm4.754.051a1.014,1.014,0,0,0,.351-.06.967.967,0,0,0,.3-.171.913.913,0,0,0,.214-.263h.011v.443h.582v-1.936a.86.86,0,0,0-.139-.489.911.911,0,0,0-.39-.323,1.422,1.422,0,0,0-.6-.115,1.451,1.451,0,0,0-.6.112.956.956,0,0,0-.393.306.852.852,0,0,0-.163.437l0,.029h.545l.005-.024a.449.449,0,0,1,.188-.275.677.677,0,0,1,.4-.107.591.591,0,0,1,.414.132.47.47,0,0,1,.144.365v.836a.592.592,0,0,1-.093.327.647.647,0,0,1-.255.228.788.788,0,0,1-.365.083.6.6,0,0,1-.373-.107.346.346,0,0,1-.14-.291v-.005a.345.345,0,0,1,.14-.287.717.717,0,0,1,.4-.124l.985-.061v-.406l-1.063.064a1.609,1.609,0,0,0-.565.123.831.831,0,0,0-.357.282.726.726,0,0,0-.123.423v.005a.833.833,0,0,0,.118.443.8.8,0,0,0,.328.3A1.074,1.074,0,0,0-254.435-24.684Zm4.2-.051h.582v-1.637a.85.85,0,0,1,.081-.385.6.6,0,0,1,.232-.254.673.673,0,0,1,.354-.091.56.56,0,0,1,.447.171.724.724,0,0,1,.148.489v1.707h.58v-1.819a1.1,1.1,0,0,0-.254-.765.918.918,0,0,0-.716-.279,1.007,1.007,0,0,0-.534.132.881.881,0,0,0-.328.346h-.011v-.425h-.582Zm6.159.056a1.612,1.612,0,0,0,.166-.008q.077-.008.128-.016v-.446l-.071.007a.82.82,0,0,1-.084,0,.422.422,0,0,1-.278-.079.37.37,0,0,1-.093-.292v-1.576h.526v-.459h-.526v-.732h-.593v.732h-.4v.459h.4v1.608a.8.8,0,0,0,.2.61A.89.89,0,0,0-244.08-24.679Zm7.634.008a2,2,0,0,0,.786-.14,1.137,1.137,0,0,0,.507-.4,1.049,1.049,0,0,0,.178-.61v0a1.015,1.015,0,0,0-.12-.51.949.949,0,0,0-.371-.353,2.273,2.273,0,0,0-.649-.224l-.419-.091a1.3,1.3,0,0,1-.531-.214.43.43,0,0,1-.171-.353v0a.473.473,0,0,1,.1-.3.628.628,0,0,1,.272-.2,1.107,1.107,0,0,1,.414-.071,1.1,1.1,0,0,1,.4.068.69.69,0,0,1,.282.2.589.589,0,0,1,.132.31l.005.035h.585l0-.043a1.061,1.061,0,0,0-.2-.57,1.18,1.18,0,0,0-.486-.381,1.731,1.731,0,0,0-.708-.136,1.764,1.764,0,0,0-.724.14,1.183,1.183,0,0,0-.494.39.981.981,0,0,0-.182.578v0a.916.916,0,0,0,.278.693,1.719,1.719,0,0,0,.844.386l.419.088a1.326,1.326,0,0,1,.551.22.454.454,0,0,1,.167.37v0a.5.5,0,0,1-.1.312.65.65,0,0,1-.29.206,1.239,1.239,0,0,1-.446.072,1.367,1.367,0,0,1-.454-.069.785.785,0,0,1-.319-.2.559.559,0,0,1-.148-.306l-.005-.035h-.585l0,.04a1.049,1.049,0,0,0,.214.584,1.2,1.2,0,0,0,.514.375A2.015,2.015,0,0,0-236.447-24.671Zm4.455.873a1.254,1.254,0,0,0,.474-.08.815.815,0,0,0,.337-.259,1.676,1.676,0,0,0,.244-.47l1.047-2.938h-.612l-.748,2.412.1-.126h-.142l.1.126-.745-2.412h-.628l1.023,2.812-.048.134a.473.473,0,0,1-.191.272.659.659,0,0,1-.327.069.811.811,0,0,1-.108-.007l-.081-.012v.451q.053.011.136.019T-231.992-23.8Zm5.67-.881a1.494,1.494,0,0,0,.589-.109.966.966,0,0,0,.4-.3.729.729,0,0,0,.147-.451v0a.655.655,0,0,0-.18-.485,1.262,1.262,0,0,0-.61-.279l-.459-.107a.983.983,0,0,1-.24-.085.34.34,0,0,1-.135-.12.3.3,0,0,1-.041-.155v0a.324.324,0,0,1,.061-.2.388.388,0,0,1,.176-.13.732.732,0,0,1,.27-.045.588.588,0,0,1,.385.116.45.45,0,0,1,.166.3l0,.019h.542v-.032a.821.821,0,0,0-.148-.431.918.918,0,0,0-.375-.306,1.341,1.341,0,0,0-.572-.112,1.432,1.432,0,0,0-.569.105.884.884,0,0,0-.382.3.746.746,0,0,0-.136.445v0a.711.711,0,0,0,.088.358.728.728,0,0,0,.266.262,1.526,1.526,0,0,0,.445.168l.459.1a.727.727,0,0,1,.315.139.286.286,0,0,1,.088.219v0a.305.305,0,0,1-.067.2.417.417,0,0,1-.19.127.891.891,0,0,1-.3.044.683.683,0,0,1-.411-.108.491.491,0,0,1-.19-.3l-.005-.027h-.572l0,.024a.912.912,0,0,0,.174.45.946.946,0,0,0,.4.3A1.531,1.531,0,0,0-226.321-24.679Zm4.765,0a1.613,1.613,0,0,0,.166-.008q.077-.008.128-.016v-.446l-.071.007a.821.821,0,0,1-.084,0,.422.422,0,0,1-.278-.079.37.37,0,0,1-.093-.292v-1.576h.526v-.459h-.526v-.732h-.593v.732h-.4v.459h.4v1.608a.8.8,0,0,0,.2.61A.89.89,0,0,0-221.556-24.679Zm4.092,0a1.464,1.464,0,0,0,.465-.069,1.177,1.177,0,0,0,.362-.191,1.1,1.1,0,0,0,.25-.274.962.962,0,0,0,.131-.318l.005-.029h-.55l-.008.021a.484.484,0,0,1-.122.194.635.635,0,0,1-.218.139.812.812,0,0,1-.3.052.767.767,0,0,1-.4-.1.674.674,0,0,1-.263-.3,1.077,1.077,0,0,1-.092-.466v-.224a1.116,1.116,0,0,1,.093-.482.688.688,0,0,1,.256-.3.683.683,0,0,1,.369-.1.7.7,0,0,1,.367.1.639.639,0,0,1,.248.292,1.189,1.189,0,0,1,.089.493v.224l.286-.382h-2v.409h2.283v-.195a1.678,1.678,0,0,0-.155-.741,1.158,1.158,0,0,0-.439-.494,1.272,1.272,0,0,0-.68-.175,1.258,1.258,0,0,0-.684.183,1.219,1.219,0,0,0-.451.513,1.738,1.738,0,0,0-.16.768v0a1.746,1.746,0,0,0,.159.77,1.165,1.165,0,0,0,.457.5A1.359,1.359,0,0,0-217.465-24.679Zm3.873-.056h.582V-26.47a.687.687,0,0,1,.075-.326.568.568,0,0,1,.207-.223.561.561,0,0,1,.3-.081.574.574,0,0,1,.283.065.461.461,0,0,1,.183.184.575.575,0,0,1,.065.282v1.835h.569v-1.757a.664.664,0,0,1,.073-.315.541.541,0,0,1,.2-.216.574.574,0,0,1,.3-.077.589.589,0,0,1,.292.067.439.439,0,0,1,.182.195.706.706,0,0,1,.063.312v1.792h.582v-1.934a1,1,0,0,0-.115-.489.82.82,0,0,0-.32-.324.966.966,0,0,0-.483-.116,1.022,1.022,0,0,0-.373.067.9.9,0,0,0-.3.191.875.875,0,0,0-.2.3h-.013a.777.777,0,0,0-.166-.3.731.731,0,0,0-.268-.188.91.91,0,0,0-.349-.064.863.863,0,0,0-.481.134.758.758,0,0,0-.3.355h-.011v-.435h-.582Z" transform="translate(2430.975 -1730.621)" fill="#1f303f"/>
  </g>
</svg>
