<svg xmlns="http://www.w3.org/2000/svg" width="14.59" height="14.897" viewBox="0 0 14.59 14.897">
  <g id="Menu" transform="translate(-76)">
    <path id="Path_39779" data-name="Path 39779" d="M87.68,0H78.91A2.913,2.913,0,0,0,76,2.91v9.078a2.913,2.913,0,0,0,2.91,2.91H87.68a2.913,2.913,0,0,0,2.91-2.91V2.91A2.913,2.913,0,0,0,87.68,0Zm1.746,11.987a1.748,1.748,0,0,1-1.746,1.746H78.91a1.748,1.748,0,0,1-1.746-1.746V2.91A1.748,1.748,0,0,1,78.91,1.164H87.68A1.748,1.748,0,0,1,89.426,2.91Z" fill="#aba5a2"/>
    <path id="Path_39780" data-name="Path 39780" d="M159.491,77.222v-.64a.582.582,0,0,0-1.164,0v.64A2.915,2.915,0,0,0,156,80.073a.582.582,0,0,0,.582.582h4.655a.582.582,0,0,0,.582-.582A2.914,2.914,0,0,0,159.491,77.222Zm-2.228,2.269a1.746,1.746,0,0,1,3.292,0Z" transform="translate(-75.731 -73.789)" fill="#aba5a2"/>
    <path id="Path_39781" data-name="Path 39781" d="M165.118,277.164h-8.536a.582.582,0,1,1,0-1.164h8.536a.582.582,0,0,1,.582.582C165.7,276.9,165.118,277.164,165.118,277.164Z" transform="translate(-77.672 -267.97)" fill="#aba5a2"/>
    <path id="Path_39783" data-name="Path 39783" d="M165.118,277.164h-8.536a.582.582,0,1,1,0-1.164h8.536a.582.582,0,0,1,.582.582C165.7,276.9,165.118,277.164,165.118,277.164Z" transform="translate(-77.672 -265.534)" fill="#aba5a2"/>
  </g>
</svg>
