<svg xmlns="http://www.w3.org/2000/svg" width="14.59" height="13.983" viewBox="0 0 14.59 13.983">
  <path id="online-shopping" d="M11.17,22.358H3.419A3.423,3.423,0,0,1,0,18.939V14.265A3.423,3.423,0,0,1,3.42,10.845a.57.57,0,1,1,0,1.14,2.282,2.282,0,0,0-2.28,2.28v4.674a2.282,2.282,0,0,0,2.279,2.279H11.17a2.282,2.282,0,0,0,2.28-2.28V14.265a2.282,2.282,0,0,0-2.28-2.28.57.57,0,0,1,0-1.14,3.423,3.423,0,0,1,3.419,3.419v4.673A3.423,3.423,0,0,1,11.17,22.358Zm-.57,1.71a.57.57,0,0,0-.57-.57H4.559a.57.57,0,0,0,0,1.14h5.471A.57.57,0,0,0,10.6,24.067ZM10.939,13.2a1.709,1.709,0,0,0-1.291-.589H9.013v-.255a1.71,1.71,0,0,0-3.419,0v.255H4.942A1.71,1.71,0,0,0,3.25,14.562L3.5,16.353a2.28,2.28,0,0,0,2.257,1.958H8.828a2.28,2.28,0,0,0,2.257-1.958l.255-1.791a1.709,1.709,0,0,0-.4-1.362Zm-4.206-.845a.57.57,0,0,1,1.14,0v.255H6.733ZM10.212,14.4l-.255,1.791a1.145,1.145,0,0,1-1.128.979H5.762a1.145,1.145,0,0,1-1.128-.979L4.378,14.4a.57.57,0,0,1,.564-.65h.651v.714a.57.57,0,0,0,1.14,0v-.714h1.14v.714a.57.57,0,0,0,1.14,0v-.714h.635a.57.57,0,0,1,.564.65Z" transform="translate(0 -10.655)" fill="#aba5a2"/>
</svg>
