<svg xmlns="http://www.w3.org/2000/svg" width="15.123" height="15.125" viewBox="0 0 15.123 15.125">
  <g id="Activity" transform="translate(0.191 -0.594)">
    <path id="Vector" d="M.271,0H2.437a.271.271,0,0,1,.271.271V2.437a.271.271,0,0,1-.271.271H.271A.271.271,0,0,1,0,2.437V.271A.271.271,0,0,1,.271,0Z" transform="translate(10.057 10.846)" fill="#aba5a2" stroke="#000"/>
    <path id="Vector-2" data-name="Vector" d="M.271,0H1.9a.271.271,0,0,1,.271.271V1.9a.271.271,0,0,1-.271.271H.271A.271.271,0,0,1,0,1.9V.271A.271.271,0,0,1,.271,0Z" transform="translate(7.889 8.678)" fill="#aba5a2" stroke="#000"/>
    <path id="Vector-3" data-name="Vector" d="M.271,0H1.9a.271.271,0,0,1,.271.271V1.9a.271.271,0,0,1-.271.271H.271A.271.271,0,0,1,0,1.9V.271A.271.271,0,0,1,.271,0Z" transform="translate(12.764 13.551)" fill="#aba5a2" stroke="#000"/>
    <path id="Vector-4" data-name="Vector" d="M.271,0H1.354a.271.271,0,0,1,.271.271V1.354a.271.271,0,0,1-.271.271H.271A.271.271,0,0,1,0,1.354V.271A.271.271,0,0,1,.271,0Z" transform="translate(13.307 8.678)" fill="#aba5a2" stroke="#000"/>
    <path id="Vector-5" data-name="Vector" d="M.271,0H1.354a.271.271,0,0,1,.271.271V1.354a.271.271,0,0,1-.271.271H.271A.271.271,0,0,1,0,1.354V.271A.271.271,0,0,1,.271,0Z" transform="translate(7.889 14.094)" fill="#aba5a2" stroke="#000"/>
    <path id="Vector-6" data-name="Vector" d="M.271,0H2.437a.271.271,0,0,1,.271.271V2.437a.271.271,0,0,1-.271.271H.271A.271.271,0,0,1,0,2.437V.271A.271.271,0,0,1,.271,0Z" transform="translate(10.057 2.721)" fill="#aba5a2" stroke="#000"/>
    <path id="Vector-7" data-name="Vector" d="M.542,0H5.416a.542.542,0,0,1,.542.542V5.416a.542.542,0,0,1-.542.542H.542A.542.542,0,0,1,0,5.416V.542A.542.542,0,0,1,.542,0Z" transform="translate(8.434 1.094)" fill="none" stroke="#aba5a2" stroke-linecap="round" stroke-linejoin="round" stroke-width="1"/>
    <path id="Vector-8" data-name="Vector" d="M.271,0H2.437a.271.271,0,0,1,.271.271V2.437a.271.271,0,0,1-.271.271H.271A.271.271,0,0,1,0,2.437V.271A.271.271,0,0,1,.271,0Z" transform="translate(1.932 2.721)" fill="#aba5a2" stroke="#000"/>
    <path id="Vector-9" data-name="Vector" d="M.542,0H5.416a.542.542,0,0,1,.542.542V5.416a.542.542,0,0,1-.542.542H.542A.542.542,0,0,1,0,5.416V.542A.542.542,0,0,1,.542,0Z" transform="translate(0.309 1.094)" fill="none" stroke="#aba5a2" stroke-linecap="round" stroke-linejoin="round" stroke-width="1"/>
    <path id="Vector-10" data-name="Vector" d="M.271,0H2.437a.271.271,0,0,1,.271.271V2.437a.271.271,0,0,1-.271.271H.271A.271.271,0,0,1,0,2.437V.271A.271.271,0,0,1,.271,0Z" transform="translate(1.932 10.846)" fill="#aba5a2" stroke="#000"/>
    <path id="Vector-11" data-name="Vector" d="M.542,0H5.416a.542.542,0,0,1,.542.542V5.416a.542.542,0,0,1-.542.542H.542A.542.542,0,0,1,0,5.416V.542A.542.542,0,0,1,.542,0Z" transform="translate(0.309 9.219)" fill="none" stroke="#aba5a2" stroke-linecap="round" stroke-linejoin="round" stroke-width="1"/>
  </g>
</svg>
