<svg id="Activity" xmlns="http://www.w3.org/2000/svg" width="15.973" height="16.025" viewBox="0 0 15.973 16.025">
  <g id="Path_33966" transform="translate(3.452 5.813)">
    <path id="Path_33966-border" d="M.227,4.9a.58.58,0,0,1-.106-.814l.92.708A.58.58,0,0,1,.227,4.9ZM.121,4.088,2.437,1.077a.581.581,0,0,1,.819-.1L5.44,2.69,7.349.225a.58.58,0,1,1,.918.711L6,3.863a.582.582,0,0,1-.818.1L3,2.25,1.04,4.8ZM2.9,1.431h0l-.46-.354Z" transform="translate(0 0)" fill="#c02328"/>
  </g>
  <g id="Ellipse_741" transform="translate(11.836 0)">
    <path id="Ellipse_741-border" d="M2.068,2.976a.907.907,0,0,0,.907-.907H4.137A2.068,2.068,0,0,1,2.068,4.137ZM0,2.068H1.161a.907.907,0,0,0,.908.907V4.137A2.068,2.068,0,0,1,0,2.068Zm2.976,0a.907.907,0,1,0-1.815,0H0a2.068,2.068,0,0,1,4.137,0Z" transform="translate(0)" fill="#c02328"/>
  </g>
  <g id="Path" transform="translate(0 0.65)">
    <path id="Path-border" d="M4.357,15.374a4.233,4.233,0,0,1-3.2-1.3A4.714,4.714,0,0,1,0,10.819V4.563A4.711,4.711,0,0,1,1.169,1.3,4.227,4.227,0,0,1,4.357,0V1.161a3.074,3.074,0,0,0-2.337.931,3.558,3.558,0,0,0-.86,2.47v6.256a3.558,3.558,0,0,0,.849,2.468,3.077,3.077,0,0,0,2.347.927h6.66a3.078,3.078,0,0,0,2.337-.928,3.546,3.546,0,0,0,.858-2.466h1.161a4.7,4.7,0,0,1-1.169,3.257,4.235,4.235,0,0,1-3.188,1.3Zm9.856-4.556V5.37a.581.581,0,0,1,1.161,0v5.449ZM9.983,0a.58.58,0,1,1,0,1.161ZM4.357,1.161V0H9.983V1.161Z" fill="#c02328"/>
  </g>
</svg>
