<svg id="vuesax_linear_setting-2" data-name="vuesax/linear/setting-2" xmlns="http://www.w3.org/2000/svg" width="15.973" height="15.133" viewBox="0 0 15.973 15.133">
  <g id="setting-2" transform="translate(0 0)">
    <g id="Vector" transform="translate(5.198 4.783)">
      <path id="Vector-border" d="M2.784,4.455A1.671,1.671,0,0,0,4.455,2.784H5.569A2.784,2.784,0,0,1,2.784,5.569ZM0,2.784H1.113A1.671,1.671,0,0,0,2.784,4.455V5.569A2.784,2.784,0,0,1,0,2.784Zm4.455,0a1.671,1.671,0,1,0-3.342,0H0a2.785,2.785,0,0,1,5.569,0Z" transform="translate(0 0)" fill="#aba5a2"/>
    </g>
    <g id="Vector-2" data-name="Vector">
      <path id="Vector-border-2" data-name="Vector-border" d="M8.81,14.244l0-.005L8.725,14.1v0c-.275-.48-.561-.595-.735-.595s-.464.116-.742.6l-.082.141,0,.005a1.8,1.8,0,0,1-2.449.644h0l-1.284-.735h0A1.968,1.968,0,0,1,2.7,11.468h0l.374.217L2.7,11.468c.279-.48.235-.787.148-.938s-.331-.342-.884-.342V9.074a2.03,2.03,0,0,1,1.849.9,2.03,2.03,0,0,1-.149,2.052h0a.852.852,0,0,0,.314,1.161h0l1.284.735-.277.483.277-.483.008,0a.682.682,0,0,0,.93-.252h0l.079-.135h0l.482.279-.482-.279.964.558-.964-.559a2.037,2.037,0,0,1,1.706-1.152,2.023,2.023,0,0,1,1.7,1.152h0l.078.135h0a.682.682,0,0,0,.93.252l.008,0,.277.483-.277-.483,1.284-.735h0l.276.484.129.226-.405-.709a.851.851,0,0,0,.312-1.163h0a2.03,2.03,0,0,1-.147-2.05A2.029,2.029,0,0,1,14,9.074v1.114c-.553,0-.8.191-.884.342s-.131.458.148.938l-.521.3.523-.3-.484.276.482-.279,0,0a1.966,1.966,0,0,1-.727,2.683h0l-1.284.735a1.754,1.754,0,0,1-.893.244A1.816,1.816,0,0,1,8.81,14.244Zm-1.649,0-.446-.265L6.7,13.972ZM8.725,14.1l.518-.3-.088.05ZM14,9.074a.858.858,0,0,0,.854-.854V6.913A.858.858,0,0,0,14,6.059a2.029,2.029,0,0,1-1.849-.9A2.032,2.032,0,0,1,12.3,3.107h0a.853.853,0,0,0-.313-1.161h0l-1.284-.735-.008,0a.682.682,0,0,0-.926.246h0l-.082.141h0A2.036,2.036,0,0,1,7.983,2.745a2.025,2.025,0,0,1-1.7-1.154h0L6.2,1.452h0a.682.682,0,0,0-.926-.246l-.008,0-1.284.735a.852.852,0,0,0-.314,1.161h0a2.031,2.031,0,0,1,.149,2.052,2.031,2.031,0,0,1-1.849.9.859.859,0,0,0-.854.854H0A1.972,1.972,0,0,1,1.968,4.945c.553,0,.8-.191.884-.342s.13-.458-.148-.938h0A1.967,1.967,0,0,1,3.429.979h0L4.713.244h0A1.8,1.8,0,0,1,7.162.888l-.479.285L6.7,1.166,7.162.888l0,.005.082.142v0c.275.479.561.594.735.594s.464-.116.742-.6h0L8.807.894l0-.005A1.8,1.8,0,0,1,11.259.244h0l1.284.735a1.967,1.967,0,0,1,.726,2.685l-.483-.279.483.279h0c-.279.481-.235.787-.148.938s.33.342.884.342a1.972,1.972,0,0,1,1.968,1.968V8.22A1.972,1.972,0,0,1,14,10.188ZM11.991,1.946l.553-.967-.338.591ZM6.765,1.314l.483-.277-.431.247Zm3.941-.1.277-.484,0,.008Zm-5.439,0L4.995.736l0-.008Zm4.023-.038-.012-.007L8.807.894ZM0,8.22V6.913H1.113V8.22a.858.858,0,0,0,.854.854v1.114A1.972,1.972,0,0,1,0,8.22Z" transform="translate(0 0)" fill="#aba5a2"/>
    </g>
  </g>
</svg>
